<svg width="143" height="39" viewBox="0 0 143 39" fill="none" xmlns="http://www.w3.org/2000/svg">
<g style="mix-blend-mode:multiply">
<path d="M0.312 38H7.032V23.84H17.736V18.512H7.032V9.92H21V4.496H0.312V38ZM24.8051 38H31.5251V11.408H24.8051V38ZM28.2131 8.24C30.5651 8.24 32.3411 6.512 32.3411 4.304C32.3411 2.096 30.5651 0.367998 28.2131 0.367998C25.8131 0.367998 24.0851 2.096 24.0851 4.304C24.0851 6.512 25.8131 8.24 28.2131 8.24ZM35.4765 24.608C35.4765 32.912 40.8525 38.432 47.6205 38.432C51.7965 38.432 54.7725 36.512 56.3565 34.064V38H63.1725V2.48H56.3565V15.104C54.5325 12.608 51.1725 10.976 47.6685 10.976C40.8525 10.976 35.4765 16.304 35.4765 24.608ZM56.4045 24.704C56.4045 29.744 53.0445 32.528 49.3485 32.528C45.7485 32.528 42.3405 29.648 42.3405 24.608C42.3405 19.568 45.7485 16.88 49.3485 16.88C53.0445 16.88 56.4045 19.664 56.4045 24.704ZM80.1998 16.496C83.6558 16.496 86.4398 18.704 86.5358 22.208H73.9118C74.4398 18.56 76.9838 16.496 80.1998 16.496ZM92.8238 29.648H85.5758C84.7118 31.424 83.1278 32.864 80.2478 32.864C76.8878 32.864 74.1998 30.656 73.8638 26.72H93.3038C93.4478 25.856 93.4958 24.992 93.4958 24.128C93.4958 16.208 88.0718 10.976 80.3918 10.976C72.5198 10.976 67.0478 16.304 67.0478 24.704C67.0478 33.056 72.6638 38.432 80.3918 38.432C86.9678 38.432 91.3838 34.544 92.8238 29.648ZM97.4408 38H104.161V2.48H97.4408V38ZM109.84 38H116.56V11.408H109.84V38ZM113.248 8.24C115.6 8.24 117.376 6.512 117.376 4.304C117.376 2.096 115.6 0.367998 113.248 0.367998C110.848 0.367998 109.12 2.096 109.12 4.304C109.12 6.512 110.848 8.24 113.248 8.24ZM142.879 30.416C142.687 20.672 127.951 23.696 127.951 18.848C127.951 17.312 129.247 16.304 131.743 16.304C134.383 16.304 136.015 17.696 136.207 19.76H142.639C142.255 14.48 138.367 10.976 131.935 10.976C125.359 10.976 121.423 14.528 121.423 18.944C121.423 28.688 136.447 25.664 136.447 30.416C136.447 31.952 135.007 33.152 132.367 33.152C129.679 33.152 127.807 31.616 127.567 29.6H120.799C121.087 34.544 125.743 38.432 132.415 38.432C138.895 38.432 142.879 34.976 142.879 30.416Z" fill="#535353"/>
</g>
</svg>
